# xmcd
#
# Track frame offsets:
#	150
#	11307
#	30300
#	45087
#	59264
#	70295
#	83262
#	95215
#	101663
#	112383
#	129175
#	150141
#	163142
#	174442
#	187637
#	206999
#	217530
#	230644
#	244606
#	256913
#
# Disc length: 3566 seconds
#
# Revision: 0
# Processed by: cddbd v1.5.2PL0 Copyright (c) Steve Scherf et al.
# Submitted via: audiograbber 1.83.01
#
DISCID=f00dec14
DTITLE=Great Women Of Country - Golden Legends Of Country
DYEAR=1900
DGENRE=Country
TTITLE0=Tammy Wynette - D.I.V.O.R.C.E.
TTITLE1=Tanya Tucker - Delta Dawn
TTITLE2=Lorrie Morgan - Please Mr Please
TTITLE3=Dottie West - What Are We Doin' In Love
TTITLE4=Lynn Anderson - Even Cowgirls Get The Blues
TTITLE5=Patty Loveless - It's What You Don't Do
TTITLE6=Connie Smith - Once A Day
TTITLE7=Tammy Wynette - Welcome To My World
TTITLE8=Tammy Wynette - When The Grass Grows Over Me
TTITLE9=Tanya Tucker - The Night They Drove Old Dixie Down
TTITLE10=Dottie West - Patsy Cline Medley - Crazy, I Fall To Pieces, Sweet Drea
TTITLE10=ms
TTITLE11=Lorrie Morgan - Love Is Fair
TTITLE12=Tammy Wynette - Stand By Your Man
TTITLE13=Kathy Mattea - Ball And Chain
TTITLE14=Barbara Fairchild - Tip Of My Fingers
TTITLE15=Stella Parton - Danger Of A Stranger
TTITLE16=Lorrie Morgan - Stuck On You
TTITLE17=Tammy Wynette - Crying In Your Rain
TTITLE18=Patty Loveless - Lonely Days Lonely Nights
TTITLE19=Tammy Wynette - Another Chance
EXTD=
EXTT0=
EXTT1=
EXTT2=
EXTT3=
EXTT4=
EXTT5=
EXTT6=
EXTT7=
EXTT8=
EXTT9=
EXTT10=
EXTT11=
EXTT12=
EXTT13=
EXTT14=
EXTT15=
EXTT16=
EXTT17=
EXTT18=
EXTT19=
PLAYORDER=
